# xmcd
#
# Track frame offsets:
#	150
#	28659
#	48101
#	69493
#	90057
#	114425
#	136100
#	157039
#	169583
#	189681
#
# Disc length: 2785 seconds
#
# Revision: 0
# Processed by: cddbd v1.5.2PL0 Copyright (c) Steve Scherf et al.
# Submitted via: EasyCDDAExtractor 9.0.0.1
#
DISCID=740adf0a
DTITLE=Pretty Maids - Georg Elserhalle Munich 11-04-02 Disc 1
DYEAR=2002
DGENRE=Hard Rock
TTITLE0=Playing God
TTITLE1=Snakes In Eden
TTITLE2=Rodeo
TTITLE3=He Who Never Lived
TTITLE4=Scream
TTITLE5=Natural High
TTITLE6=Wouldn't Miss You
TTITLE7=Drum Solo
TTITLE8=Virtual Brutality
TTITLE9=Eye Of The Storm
EXTD=
EXTT0=
EXTT1=
EXTT2=
EXTT3=
EXTT4=
EXTT5=
EXTT6=
EXTT7=
EXTT8=
EXTT9=
PLAYORDER=
